<svg width="304" height="127" viewBox="0 0 304 127" fill="none" xmlns="http://www.w3.org/2000/svg">
<g filter="url(#filter0_i_83_58)">
<path fill-rule="evenodd" clip-rule="evenodd" d="M295.734 82.0973C284.385 89.4816 243.782 84.2379 219.887 87.0278C204.971 88.7693 197.168 93.2718 182.78 95.2854C162.285 98.1539 144.79 103.854 118 101.288C89.9172 98.5974 61.5014 90.4273 40.9231 81.6948C20.3105 72.9477 2.34489 61.9413 5.30614 53.4655C8.22609 45.1077 42.9874 45.7641 55.6418 39.5656C65.6513 34.6627 56.9309 25.3528 70.3967 21.5824C85.1148 17.4614 108.111 16.8062 131.7 18.2695C156.875 19.8313 183.111 23.9989 207.033 30.0587C232.503 36.5108 255.719 44.5124 271.238 53.6169C287.444 63.1246 306.454 75.1225 295.734 82.0973Z" fill="url(#paint0_linear_83_58)"/>
</g>
<path d="M61.52 59.12C61.056 58.144 60.384 57.392 59.504 56.864C58.624 56.32 57.6 56.048 56.432 56.048C55.264 56.048 54.208 56.32 53.264 56.864C52.336 57.392 51.6 58.16 51.056 59.168C50.528 60.16 50.264 61.312 50.264 62.624C50.264 63.936 50.528 65.088 51.056 66.08C51.6 67.072 52.336 67.84 53.264 68.384C54.208 68.912 55.264 69.176 56.432 69.176C58.064 69.176 59.408 68.688 60.464 67.712C61.52 66.736 62.136 65.416 62.312 63.752H55.64V61.976H64.64V63.656C64.512 65.032 64.08 66.296 63.344 67.448C62.608 68.584 61.64 69.488 60.44 70.16C59.24 70.816 57.904 71.144 56.432 71.144C54.88 71.144 53.464 70.784 52.184 70.064C50.904 69.328 49.888 68.312 49.136 67.016C48.4 65.72 48.032 64.256 48.032 62.624C48.032 60.992 48.4 59.528 49.136 58.232C49.888 56.92 50.904 55.904 52.184 55.184C53.464 54.448 54.88 54.08 56.432 54.08C58.208 54.08 59.776 54.52 61.136 55.4C62.512 56.28 63.512 57.52 64.136 59.12H61.52ZM79.5277 63.92C79.5277 64.336 79.5037 64.776 79.4557 65.24H68.9437C69.0237 66.536 69.4637 67.552 70.2637 68.288C71.0797 69.008 72.0637 69.368 73.2157 69.368C74.1597 69.368 74.9437 69.152 75.5677 68.72C76.2077 68.272 76.6557 67.68 76.9117 66.944H79.2637C78.9117 68.208 78.2077 69.24 77.1517 70.04C76.0957 70.824 74.7837 71.216 73.2157 71.216C71.9677 71.216 70.8477 70.936 69.8557 70.376C68.8797 69.816 68.1117 69.024 67.5517 68C66.9917 66.96 66.7117 65.76 66.7117 64.4C66.7117 63.04 66.9837 61.848 67.5277 60.824C68.0717 59.8 68.8317 59.016 69.8077 58.472C70.7997 57.912 71.9357 57.632 73.2157 57.632C74.4637 57.632 75.5677 57.904 76.5277 58.448C77.4877 58.992 78.2237 59.744 78.7357 60.704C79.2637 61.648 79.5277 62.72 79.5277 63.92ZM77.2717 63.464C77.2717 62.632 77.0877 61.92 76.7197 61.328C76.3517 60.72 75.8477 60.264 75.2077 59.96C74.5837 59.64 73.8877 59.48 73.1197 59.48C72.0157 59.48 71.0717 59.832 70.2877 60.536C69.5197 61.24 69.0797 62.216 68.9677 63.464H77.2717ZM85.0745 59.648V67.4C85.0745 68.04 85.2105 68.496 85.4825 68.768C85.7545 69.024 86.2265 69.152 86.8985 69.152H88.5065V71H86.5385C85.3225 71 84.4105 70.72 83.8025 70.16C83.1945 69.6 82.8905 68.68 82.8905 67.4V59.648H81.1865V57.848H82.8905V54.536H85.0745V57.848H88.5065V59.648H85.0745ZM102.207 71.216C101.199 71.216 100.295 71.048 99.4951 70.712C98.6951 70.36 98.0631 69.88 97.5991 69.272C97.1351 68.648 96.8791 67.936 96.8311 67.136H99.0871C99.1511 67.792 99.4551 68.328 99.9991 68.744C100.559 69.16 101.287 69.368 102.183 69.368C103.015 69.368 103.671 69.184 104.151 68.816C104.631 68.448 104.871 67.984 104.871 67.424C104.871 66.848 104.615 66.424 104.103 66.152C103.591 65.864 102.799 65.584 101.727 65.312C100.751 65.056 99.9511 64.8 99.3271 64.544C98.7191 64.272 98.1911 63.88 97.7431 63.368C97.3111 62.84 97.0951 62.152 97.0951 61.304C97.0951 60.632 97.2951 60.016 97.6951 59.456C98.0951 58.896 98.6631 58.456 99.3991 58.136C100.135 57.8 100.975 57.632 101.919 57.632C103.375 57.632 104.551 58 105.447 58.736C106.343 59.472 106.823 60.48 106.887 61.76H104.703C104.655 61.072 104.375 60.52 103.863 60.104C103.367 59.688 102.695 59.48 101.847 59.48C101.063 59.48 100.439 59.648 99.9751 59.984C99.5111 60.32 99.2791 60.76 99.2791 61.304C99.2791 61.736 99.4151 62.096 99.6871 62.384C99.9751 62.656 100.327 62.88 100.743 63.056C101.175 63.216 101.767 63.4 102.519 63.608C103.463 63.864 104.231 64.12 104.823 64.376C105.415 64.616 105.919 64.984 106.335 65.48C106.767 65.976 106.991 66.624 107.007 67.424C107.007 68.144 106.807 68.792 106.407 69.368C106.007 69.944 105.439 70.4 104.703 70.736C103.983 71.056 103.151 71.216 102.207 71.216ZM112.754 59.648V67.4C112.754 68.04 112.89 68.496 113.162 68.768C113.434 69.024 113.906 69.152 114.578 69.152H116.186V71H114.218C113.002 71 112.09 70.72 111.482 70.16C110.874 69.6 110.57 68.68 110.57 67.4V59.648H108.866V57.848H110.57V54.536H112.754V57.848H116.186V59.648H112.754ZM118.016 64.376C118.016 63.032 118.288 61.856 118.832 60.848C119.376 59.824 120.12 59.032 121.064 58.472C122.024 57.912 123.088 57.632 124.256 57.632C125.408 57.632 126.408 57.88 127.256 58.376C128.104 58.872 128.736 59.496 129.152 60.248V57.848H131.36V71H129.152V68.552C128.72 69.32 128.072 69.96 127.208 70.472C126.36 70.968 125.368 71.216 124.232 71.216C123.064 71.216 122.008 70.928 121.064 70.352C120.12 69.776 119.376 68.968 118.832 67.928C118.288 66.888 118.016 65.704 118.016 64.376ZM129.152 64.4C129.152 63.408 128.952 62.544 128.552 61.808C128.152 61.072 127.608 60.512 126.92 60.128C126.248 59.728 125.504 59.528 124.688 59.528C123.872 59.528 123.128 59.72 122.456 60.104C121.784 60.488 121.248 61.048 120.848 61.784C120.448 62.52 120.248 63.384 120.248 64.376C120.248 65.384 120.448 66.264 120.848 67.016C121.248 67.752 121.784 68.32 122.456 68.72C123.128 69.104 123.872 69.296 124.688 69.296C125.504 69.296 126.248 69.104 126.92 68.72C127.608 68.32 128.152 67.752 128.552 67.016C128.952 66.264 129.152 65.392 129.152 64.4ZM137.235 59.984C137.619 59.232 138.163 58.648 138.867 58.232C139.587 57.816 140.459 57.608 141.483 57.608V59.864H140.907C138.459 59.864 137.235 61.192 137.235 63.848V71H135.051V57.848H137.235V59.984ZM146.668 59.648V67.4C146.668 68.04 146.804 68.496 147.076 68.768C147.348 69.024 147.82 69.152 148.492 69.152H150.1V71H148.132C146.916 71 146.004 70.72 145.396 70.16C144.788 69.6 144.484 68.68 144.484 67.4V59.648H142.78V57.848H144.484V54.536H146.668V57.848H150.1V59.648H146.668ZM164.746 63.92C164.746 64.336 164.722 64.776 164.674 65.24H154.162C154.242 66.536 154.682 67.552 155.482 68.288C156.298 69.008 157.282 69.368 158.434 69.368C159.378 69.368 160.162 69.152 160.786 68.72C161.426 68.272 161.874 67.68 162.13 66.944H164.482C164.13 68.208 163.426 69.24 162.37 70.04C161.314 70.824 160.002 71.216 158.434 71.216C157.186 71.216 156.066 70.936 155.074 70.376C154.098 69.816 153.33 69.024 152.77 68C152.21 66.96 151.93 65.76 151.93 64.4C151.93 63.04 152.202 61.848 152.746 60.824C153.29 59.8 154.05 59.016 155.026 58.472C156.018 57.912 157.154 57.632 158.434 57.632C159.682 57.632 160.786 57.904 161.746 58.448C162.706 58.992 163.442 59.744 163.954 60.704C164.482 61.648 164.746 62.72 164.746 63.92ZM162.49 63.464C162.49 62.632 162.306 61.92 161.938 61.328C161.57 60.72 161.066 60.264 160.426 59.96C159.802 59.64 159.106 59.48 158.338 59.48C157.234 59.48 156.29 59.832 155.506 60.536C154.738 61.24 154.298 62.216 154.186 63.464H162.49ZM166.813 64.376C166.813 63.032 167.085 61.856 167.629 60.848C168.173 59.824 168.917 59.032 169.861 58.472C170.821 57.912 171.893 57.632 173.077 57.632C174.101 57.632 175.053 57.872 175.933 58.352C176.813 58.816 177.485 59.432 177.949 60.2V53.24H180.157V71H177.949V68.528C177.517 69.312 176.877 69.96 176.029 70.472C175.181 70.968 174.189 71.216 173.053 71.216C171.885 71.216 170.821 70.928 169.861 70.352C168.917 69.776 168.173 68.968 167.629 67.928C167.085 66.888 166.813 65.704 166.813 64.376ZM177.949 64.4C177.949 63.408 177.749 62.544 177.349 61.808C176.949 61.072 176.405 60.512 175.717 60.128C175.045 59.728 174.301 59.528 173.485 59.528C172.669 59.528 171.925 59.72 171.253 60.104C170.581 60.488 170.045 61.048 169.645 61.784C169.245 62.52 169.045 63.384 169.045 64.376C169.045 65.384 169.245 66.264 169.645 67.016C170.045 67.752 170.581 68.32 171.253 68.72C171.925 69.104 172.669 69.296 173.485 69.296C174.301 69.296 175.045 69.104 175.717 68.72C176.405 68.32 176.949 67.752 177.349 67.016C177.749 66.264 177.949 65.392 177.949 64.4ZM192.91 59.648V67.4C192.91 68.04 193.046 68.496 193.318 68.768C193.59 69.024 194.062 69.152 194.734 69.152H196.342V71H194.374C193.158 71 192.246 70.72 191.638 70.16C191.03 69.6 190.726 68.68 190.726 67.4V59.648H189.022V57.848H190.726V54.536H192.91V57.848H196.342V59.648H192.91ZM204.725 71.216C203.493 71.216 202.373 70.936 201.365 70.376C200.373 69.816 199.589 69.024 199.013 68C198.453 66.96 198.173 65.76 198.173 64.4C198.173 63.056 198.461 61.872 199.037 60.848C199.629 59.808 200.429 59.016 201.437 58.472C202.445 57.912 203.573 57.632 204.821 57.632C206.069 57.632 207.197 57.912 208.205 58.472C209.213 59.016 210.005 59.8 210.581 60.824C211.173 61.848 211.469 63.04 211.469 64.4C211.469 65.76 211.165 66.96 210.557 68C209.965 69.024 209.157 69.816 208.133 70.376C207.109 70.936 205.973 71.216 204.725 71.216ZM204.725 69.296C205.509 69.296 206.245 69.112 206.933 68.744C207.621 68.376 208.173 67.824 208.589 67.088C209.021 66.352 209.237 65.456 209.237 64.4C209.237 63.344 209.029 62.448 208.613 61.712C208.197 60.976 207.653 60.432 206.981 60.08C206.309 59.712 205.581 59.528 204.797 59.528C203.997 59.528 203.261 59.712 202.589 60.08C201.933 60.432 201.405 60.976 201.005 61.712C200.605 62.448 200.405 63.344 200.405 64.4C200.405 65.472 200.597 66.376 200.981 67.112C201.381 67.848 201.909 68.4 202.565 68.768C203.221 69.12 203.941 69.296 204.725 69.296ZM213.524 64.376C213.524 63.032 213.796 61.856 214.34 60.848C214.884 59.824 215.628 59.032 216.572 58.472C217.532 57.912 218.604 57.632 219.788 57.632C220.812 57.632 221.764 57.872 222.644 58.352C223.524 58.816 224.196 59.432 224.66 60.2V53.24H226.868V71H224.66V68.528C224.228 69.312 223.588 69.96 222.74 70.472C221.892 70.968 220.9 71.216 219.764 71.216C218.596 71.216 217.532 70.928 216.572 70.352C215.628 69.776 214.884 68.968 214.34 67.928C213.796 66.888 213.524 65.704 213.524 64.376ZM224.66 64.4C224.66 63.408 224.46 62.544 224.06 61.808C223.66 61.072 223.116 60.512 222.428 60.128C221.756 59.728 221.012 59.528 220.196 59.528C219.38 59.528 218.636 59.72 217.964 60.104C217.292 60.488 216.756 61.048 216.356 61.784C215.956 62.52 215.756 63.384 215.756 64.376C215.756 65.384 215.956 66.264 216.356 67.016C216.756 67.752 217.292 68.32 217.964 68.72C218.636 69.104 219.38 69.296 220.196 69.296C221.012 69.296 221.756 69.104 222.428 68.72C223.116 68.32 223.66 67.752 224.06 67.016C224.46 66.264 224.66 65.392 224.66 64.4ZM229.743 64.376C229.743 63.032 230.015 61.856 230.559 60.848C231.103 59.824 231.847 59.032 232.791 58.472C233.751 57.912 234.815 57.632 235.983 57.632C237.135 57.632 238.135 57.88 238.983 58.376C239.831 58.872 240.463 59.496 240.879 60.248V57.848H243.087V71H240.879V68.552C240.447 69.32 239.799 69.96 238.935 70.472C238.087 70.968 237.095 71.216 235.959 71.216C234.791 71.216 233.735 70.928 232.791 70.352C231.847 69.776 231.103 68.968 230.559 67.928C230.015 66.888 229.743 65.704 229.743 64.376ZM240.879 64.4C240.879 63.408 240.679 62.544 240.279 61.808C239.879 61.072 239.335 60.512 238.647 60.128C237.975 59.728 237.231 59.528 236.415 59.528C235.599 59.528 234.855 59.72 234.183 60.104C233.511 60.488 232.975 61.048 232.575 61.784C232.175 62.52 231.975 63.384 231.975 64.376C231.975 65.384 232.175 66.264 232.575 67.016C232.975 67.752 233.511 68.32 234.183 68.72C234.855 69.104 235.599 69.296 236.415 69.296C237.231 69.296 237.975 69.104 238.647 68.72C239.335 68.32 239.879 67.752 240.279 67.016C240.679 66.264 240.879 65.392 240.879 64.4ZM258.106 57.848L250.186 77.192H247.93L250.522 70.856L245.218 57.848H247.642L251.77 68.504L255.85 57.848H258.106Z" fill="white"/>
<g filter="url(#filter1_f_83_58)">
<ellipse cx="158" cy="107.5" rx="99" ry="1.5" transform="rotate(-2.66422 158 107.5)" fill="#262626"/>
</g>
<defs>
<filter id="filter0_i_83_58" x="4.98508" y="13.5593" width="293.874" height="88.376" filterUnits="userSpaceOnUse" color-interpolation-filters="sRGB">
<feFlood flood-opacity="0" result="BackgroundImageFix"/>
<feBlend mode="normal" in="SourceGraphic" in2="BackgroundImageFix" result="shape"/>
<feColorMatrix in="SourceAlpha" type="matrix" values="0 0 0 0 0 0 0 0 0 0 0 0 0 0 0 0 0 0 127 0" result="hardAlpha"/>
<feOffset dy="-4"/>
<feGaussianBlur stdDeviation="3.65"/>
<feComposite in2="hardAlpha" operator="arithmetic" k2="-1" k3="1"/>
<feColorMatrix type="matrix" values="0 0 0 0 0 0 0 0 0 0 0 0 0 0 0 0 0 0 0.25 0"/>
<feBlend mode="normal" in2="shape" result="effect1_innerShadow_83_58"/>
</filter>
<filter id="filter1_f_83_58" x="46.2069" y="89.7592" width="223.586" height="35.4819" filterUnits="userSpaceOnUse" color-interpolation-filters="sRGB">
<feFlood flood-opacity="0" result="BackgroundImageFix"/>
<feBlend mode="normal" in="SourceGraphic" in2="BackgroundImageFix" result="shape"/>
<feGaussianBlur stdDeviation="6.45" result="effect1_foregroundBlur_83_58"/>
</filter>
<linearGradient id="paint0_linear_83_58" x1="158.4" y1="20.8042" x2="146.329" y2="105.566" gradientUnits="userSpaceOnUse">
<stop stop-color="#62A0FF"/>
<stop offset="1" stop-color="#7C5EFF"/>
</linearGradient>
</defs>
</svg>
